<svg width="8050" height="1255" viewBox="0 0 8050 1255" fill="none" xmlns="http://www.w3.org/2000/svg">
<g clip-path="url(#clip0_0_3)">
<rect width="320" height="340" transform="matrix(-1 0 0 1 6802 916)" fill="#710000"/>
<rect width="900" height="30" transform="matrix(-1 0 0 1 8050 1226)" fill="#710000"/>
<path fill-rule="evenodd" clip-rule="evenodd" d="M6802 0H7150V1186C7026.45 1186 6974.29 1155.48 6954.77 1128.61C6935.36 1101.88 6944.31 1074.04 6953.19 1065.06C6961.87 1056.28 6974.76 1041.24 6984.9 1023.26C6994.79 1005.72 7003.69 982.489 6999.9 958.52C6995.83 932.753 6978.1 911.511 6946.01 897.453C6914.78 883.767 6868.39 876 6802 876V0ZM6802 916V1257H7150V1226C7022.43 1226 6953.44 1194.84 6922.41 1152.11C6891.27 1109.24 6902.36 1059.59 6924.74 1036.94C6931.68 1029.91 6942.13 1017.67 6950.06 1003.62C6958.22 989.132 6962.1 975.589 6960.39 964.762C6958.97 955.732 6952.92 944.153 6929.96 934.09C6906.14 923.655 6866.2 916 6802 916Z" fill="#710000"/>
<path fill-rule="evenodd" clip-rule="evenodd" d="M6135 0H6482V876C6358.45 876 6306.29 845.477 6286.77 818.605C6267.36 791.881 6276.31 764.038 6285.19 755.058C6293.87 746.277 6306.76 731.237 6316.9 713.264C6326.79 695.72 6335.69 672.489 6331.9 648.52C6327.83 622.753 6310.1 601.511 6278.01 587.453C6246.94 573.836 6200.86 566.078 6135 566.001V0ZM6135 606.001C6134.67 606 6134.33 606 6134 606V566C6134.33 566 6134.67 566 6135 566.001V606.001ZM6482 916C6354.43 916 6285.44 884.836 6254.41 842.113C6223.27 799.244 6234.36 749.587 6256.74 726.942C6263.68 719.911 6274.13 707.669 6282.06 693.616C6290.22 679.132 6294.1 665.589 6292.39 654.762C6290.97 645.732 6284.92 634.153 6261.96 624.09C6238.27 613.709 6198.62 606.08 6135 606.001V1257H6482V916Z" fill="#710000"/>
<rect x="5479" y="687.626" width="349" height="25.1008" fill="#710000"/>
<rect x="5663.61" y="629.894" width="164.39" height="57.7318" fill="#710000"/>
<rect x="5610.75" y="641.405" width="53.2225" height="46.1492" fill="#710000"/>
<rect x="5561.02" y="662.382" width="49.7325" height="26.0114" fill="#710000"/>
<path d="M5483.36 700.56C5540.03 700.56 5581.88 655.78 5627.13 644.494C5672.37 633.208 5735.57 619.769 5829 621.948" stroke="#710000" stroke-width="30"/>
<rect width="307" height="402.02" transform="matrix(-1 0 0 1 6135 606.985)" fill="#710000"/>
<rect width="349" height="327.202" transform="matrix(-1 0 0 1 5828 681.803)" fill="#710000"/>
<rect width="400" height="327.202" transform="matrix(-1 0 0 1 5479 681.802)" fill="#710000"/>
<path d="M3143 699C3185.06 699 3198.94 682.489 3223.96 669C3248.98 655.511 3253.93 642 3306.5 642" stroke="#FF0000" stroke-width="30"/>
<path d="M3562 657C3541.42 657 3534.63 652.655 3522.39 649.105C3510.14 645.556 3507.72 642 3482 642" stroke="#FF0000" stroke-width="30"/>
<path d="M4794 697C4682.62 697 4645.85 675.275 4579.59 657.526C4513.33 639.778 4500.23 622 4361 622" stroke="#FF0000" stroke-width="30"/>
<path d="M3678 697C3693.43 697 3698.53 692.655 3707.71 689.105C3716.89 685.556 3718.71 682 3738 682" stroke="#FF0000" stroke-width="30"/>
<rect width="289" height="30" transform="matrix(-1 0 0 1 5083 682)" fill="#FF0000"/>
<rect x="2846" y="622" width="97" height="30" fill="#FF0000"/>
<rect x="3014" y="543" width="176" height="30" fill="#FF0000"/>
<rect x="3306" y="627" width="176" height="30" fill="#FF0000"/>
<rect width="279" height="30" transform="matrix(-1 0 0 1 4017 667)" fill="#FF0000"/>
<rect width="70" height="30" transform="matrix(-1 0 0 1 4087 637)" fill="#FF0000"/>
<rect width="274" height="30" transform="matrix(-1 0 0 1 4361 607)" fill="#FF0000"/>
<rect x="2686" y="734" width="114" height="28" fill="#FF0000"/>
<rect x="2771" y="699" width="75" height="37" fill="#FF0000"/>
<rect x="2808" y="652" width="38" height="51" fill="#FF0000"/>
<path d="M2686 747C2794.5 747 2814 637.798 2847 637" stroke="#FF0000" stroke-width="30"/>
<rect width="293.016" height="30" transform="matrix(-1 0 0 1 3396.02 979.305)" fill="#710000"/>
<rect width="235.455" height="60" transform="matrix(-1 0 0 1 3621 949)" fill="#710000"/>
<rect width="138.02" height="69" transform="matrix(-1 0 0 1 3241.02 910.305)" fill="#710000"/>
<rect width="58.3518" height="58" transform="matrix(-1 0 0 1 3293.41 924)" fill="#710000"/>
<rect width="100.324" height="35" transform="matrix(-1 0 0 1 3385.55 952)" fill="#710000"/>
<path d="M3391.18 964.5C3361.49 964.5 3309.64 941.243 3271.65 927.754C3233.66 914.265 3177.44 899.395 3099 902" stroke="#710000" stroke-width="30"/>
<rect x="3736.61" y="979" width="158.387" height="30" fill="#710000"/>
<rect x="3615" y="949" width="127.273" height="60" fill="#710000"/>
<rect x="3893" y="887" width="468" height="122" fill="#710000"/>
<rect x="3820.39" y="910.305" width="74.6055" height="69" fill="#710000"/>
<rect x="3792.07" y="924" width="31.5415" height="58" fill="#710000"/>
<rect x="3742.27" y="952" width="54.2292" height="35" fill="#710000"/>
<path d="M3739.23 964.5C3755.28 964.5 3783.3 941.243 3803.84 927.754C3824.37 914.265 3852.6 899.7 3895 902.305" stroke="#710000" stroke-width="30"/>
<rect x="2686" y="887" width="417" height="122" fill="#710000"/>
<rect x="4361" y="846" width="80" height="163" fill="#710000"/>
<rect x="4441" y="815" width="217" height="194" fill="#710000"/>
<rect x="4658" y="773" width="425" height="236" fill="#710000"/>
<rect x="4361" y="846" width="70" height="163" fill="#710000"/>
<rect x="2117" y="774" width="150" height="20" fill="#710000"/>
<rect x="2267" y="774" width="210" height="235" fill="#710000"/>
<rect x="1560" y="869" width="129" height="140" fill="#710000"/>
<rect x="1689" y="838" width="88" height="171" fill="#710000"/>
<rect x="1777" y="809" width="130" height="200" fill="#710000"/>
<rect x="1907" y="774" width="210" height="235" fill="#710000"/>
<rect x="1441" y="983" width="121" height="26" fill="#710000"/>
<rect x="1513" y="960" width="49" height="26" fill="#710000"/>
<rect x="1538" y="935" width="36" height="27" fill="#710000"/>
<path d="M1431 994.952C1551 997.822 1575 872 1575 872" stroke="#710000" stroke-width="30"/>
<rect x="2476" y="732" width="210" height="277" fill="#710000"/>
<rect width="286.228" height="30" transform="matrix(-1 0 0 1 1361.23 980)" fill="#710000"/>
<rect width="72" height="30" transform="matrix(-1 0 0 1 1433 980)" fill="#710000"/>
<rect width="134.823" height="69" transform="matrix(-1 0 0 1 1209.82 911)" fill="#710000"/>
<rect width="43.2587" height="55" transform="matrix(-1 0 0 1 1253.08 925)" fill="#710000"/>
<rect width="48.3055" height="31" transform="matrix(-1 0 0 1 1301.39 950)" fill="#710000"/>
<path d="M1357.98 994.5C1315.81 978.5 1276.85 941.938 1239.74 928.449C1202.63 914.96 1151.62 900.395 1075 903" stroke="#710000" stroke-width="30"/>
<rect x="638" y="980" width="228" height="30" fill="#710000"/>
<rect x="798.231" y="911" width="67.7683" height="69" fill="#710000"/>
<rect x="724.146" y="956" width="34.4584" height="24" fill="#710000"/>
<rect x="758.604" y="929" width="39.6272" height="51" fill="#710000"/>
<path d="M640.584 995C734.484 1001 758.03 903 866 903" stroke="#710000" stroke-width="30"/>
<rect x="866" y="888" width="150" height="20" fill="#710000"/>
<rect x="1016" y="888" width="63" height="122" fill="#710000"/>
<rect x="380" y="895" width="150" height="30" fill="#FF0000"/>
<rect y="980" width="320" height="30" fill="#710000"/>
<rect x="320" y="980" width="320" height="30" fill="#710000"/>
<rect x="2566" y="702" width="30" height="30" fill="#710000"/>
<rect x="3148" y="513" width="30" height="30" fill="#710000"/>
<rect x="3302" y="597" width="30" height="30" fill="#710000"/>
<rect x="5752" y="578" width="30" height="30" fill="#710000"/>
<rect x="2028" y="744" width="30" height="30" fill="#710000"/>
</g>
<defs>
<clipPath id="clip0_0_3">
<rect width="8050" height="1255" fill="white"/>
</clipPath>
</defs>
</svg>
