<svg width="8050" height="1255" viewBox="0 0 8050 1255" fill="none" xmlns="http://www.w3.org/2000/svg">
<g clip-path="url(#clip0_0_3)">
<rect width="8050" height="1255" fill="white"/>
<rect width="320" height="340" transform="matrix(-1 0 0 1 6802 916)" fill="#710000"/>
<rect width="900" height="30" transform="matrix(-1 0 0 1 8050 1226)" fill="#710000"/>
<path fill-rule="evenodd" clip-rule="evenodd" d="M6802 0H7150V1186C7026.45 1186 6974.29 1155.48 6954.77 1128.61C6935.36 1101.88 6944.31 1074.04 6953.19 1065.06C6961.87 1056.28 6974.76 1041.24 6984.9 1023.26C6994.79 1005.72 7003.69 982.489 6999.9 958.52C6995.83 932.753 6978.1 911.511 6946.01 897.453C6914.78 883.767 6868.39 876 6802 876V0ZM6802 916V1257H7150V1226C7022.43 1226 6953.44 1194.84 6922.41 1152.11C6891.27 1109.24 6902.36 1059.59 6924.74 1036.94C6931.68 1029.91 6942.13 1017.67 6950.06 1003.62C6958.22 989.132 6962.1 975.589 6960.39 964.762C6958.97 955.732 6952.92 944.153 6929.96 934.09C6906.14 923.655 6866.2 916 6802 916Z" fill="#710000"/>
<path fill-rule="evenodd" clip-rule="evenodd" d="M6135 0H6482V876C6358.83 876 6306.85 845.485 6287.4 818.627C6268.03 791.888 6276.97 764.018 6285.81 755.037C6294.47 746.255 6307.33 731.214 6317.43 713.242C6327.3 695.697 6336.17 672.479 6332.39 648.528C6328.34 622.784 6310.66 601.532 6278.64 587.461C6247.48 573.768 6201.21 566 6135 566V0ZM6135 606V1257H6482V916C6354.77 916 6285.95 884.827 6255 842.091C6223.96 799.237 6235.01 749.607 6257.32 726.963C6264.25 719.933 6274.66 707.692 6282.57 693.637C6290.71 679.155 6294.59 665.6 6292.88 654.753C6291.45 645.701 6285.42 634.132 6262.55 624.082C6238.82 613.654 6199.01 606 6135 606Z" fill="#710000"/>
<rect x="5479" y="687.626" width="349" height="25.1008" fill="#710000"/>
<rect x="5663.61" y="629.894" width="164.39" height="57.7318" fill="#710000"/>
<rect x="5610.75" y="641.405" width="53.2225" height="46.1492" fill="#710000"/>
<rect x="5561.02" y="662.382" width="49.7325" height="26.0114" fill="#710000"/>
<path d="M5483.36 700.56C5540.03 700.56 5581.88 655.78 5627.13 644.494C5672.37 633.208 5735.57 619.769 5829 621.948" stroke="#710000" stroke-width="30"/>
<rect width="307" height="402.02" transform="matrix(-1 0 0 1 6135 606.985)" fill="#710000"/>
<rect width="349" height="327.202" transform="matrix(-1 0 0 1 5828 681.803)" fill="#710000"/>
<rect width="400" height="327.202" transform="matrix(-1 0 0 1 5479 681.802)" fill="#710000"/>
<path d="M3143 699C3185.06 699 3198.94 682.489 3223.96 669C3248.98 655.511 3253.93 642 3306.5 642" stroke="#FF0000" stroke-width="30"/>
<path d="M3562 657C3541.42 657 3534.63 652.655 3522.39 649.105C3510.14 645.556 3507.72 642 3482 642" stroke="#FF0000" stroke-width="30"/>
<path d="M4794 697C4682.62 697 4645.85 675.275 4579.59 657.526C4513.33 639.778 4500.23 622 4361 622" stroke="#FF0000" stroke-width="30"/>
<path d="M3678 697C3693.43 697 3698.53 692.655 3707.71 689.105C3716.89 685.556 3718.71 682 3738 682" stroke="#FF0000" stroke-width="30"/>
<rect width="289" height="30" transform="matrix(-1 0 0 1 5083 682)" fill="#FF0000"/>
<rect x="2846" y="622" width="97" height="30" fill="#FF0000"/>
<rect x="3014" y="543" width="176" height="30" fill="#FF0000"/>
<rect x="3306" y="627" width="176" height="30" fill="#FF0000"/>
<rect width="279" height="30" transform="matrix(-1 0 0 1 4017 667)" fill="#FF0000"/>
<rect width="70" height="30" transform="matrix(-1 0 0 1 4087 637)" fill="#FF0000"/>
<rect width="274" height="30" transform="matrix(-1 0 0 1 4361 607)" fill="#FF0000"/>
<rect x="2686" y="734" width="114" height="28" fill="#FF0000"/>
<rect x="2771" y="699" width="75" height="37" fill="#FF0000"/>
<rect x="2808" y="652" width="38" height="51" fill="#FF0000"/>
<path d="M2686 747C2794.5 747 2814 637.798 2847 637" stroke="#FF0000" stroke-width="30"/>
<rect width="293.016" height="30" transform="matrix(-1 0 0 1 3396.02 979.305)" fill="#710000"/>
<rect width="235.455" height="60" transform="matrix(-1 0 0 1 3621 949)" fill="#710000"/>
<rect width="138.02" height="69" transform="matrix(-1 0 0 1 3241.02 910.305)" fill="#710000"/>
<rect width="58.3518" height="58" transform="matrix(-1 0 0 1 3293.41 924)" fill="#710000"/>
<rect width="100.324" height="35" transform="matrix(-1 0 0 1 3385.55 952)" fill="#710000"/>
<path d="M3391.18 964.5C3361.49 964.5 3309.64 941.243 3271.65 927.754C3233.66 914.265 3177.44 899.395 3099 902" stroke="#710000" stroke-width="30"/>
<rect x="3736.61" y="979" width="158.387" height="30" fill="#710000"/>
<rect x="3615" y="949" width="127.273" height="60" fill="#710000"/>
<rect x="3893" y="887" width="468" height="122" fill="#710000"/>
<rect x="3820.39" y="910.305" width="74.6055" height="69" fill="#710000"/>
<rect x="3792.07" y="924" width="31.5415" height="58" fill="#710000"/>
<rect x="3742.27" y="952" width="54.2292" height="35" fill="#710000"/>
<path d="M3739.23 964.5C3755.28 964.5 3783.3 941.243 3803.84 927.754C3824.37 914.265 3852.6 899.7 3895 902.305" stroke="#710000" stroke-width="30"/>
<rect x="2686" y="887" width="417" height="122" fill="#710000"/>
<rect x="4361" y="846" width="80" height="163" fill="#710000"/>
<rect x="4441" y="815" width="217" height="194" fill="#710000"/>
<rect x="4658" y="773" width="425" height="236" fill="#710000"/>
<rect x="4361" y="846" width="70" height="163" fill="#710000"/>
<rect x="2117" y="774" width="150" height="20" fill="#710000"/>
<rect x="2267" y="774" width="210" height="235" fill="#710000"/>
<rect x="1560" y="869" width="129" height="140" fill="#710000"/>
<rect x="1689" y="838" width="88" height="171" fill="#710000"/>
<rect x="1777" y="809" width="130" height="200" fill="#710000"/>
<rect x="1907" y="774" width="210" height="235" fill="#710000"/>
<rect x="1441" y="983" width="121" height="26" fill="#710000"/>
<rect x="1513" y="960" width="49" height="26" fill="#710000"/>
<rect x="1538" y="935" width="36" height="27" fill="#710000"/>
<path d="M1431 994.952C1551 997.822 1575 872 1575 872" stroke="#710000" stroke-width="30"/>
<rect x="2476" y="732" width="210" height="277" fill="#710000"/>
<rect width="286.228" height="30" transform="matrix(-1 0 0 1 1361.23 980)" fill="#710000"/>
<rect width="72" height="30" transform="matrix(-1 0 0 1 1433 980)" fill="#710000"/>
<rect width="134.823" height="69" transform="matrix(-1 0 0 1 1209.82 911)" fill="#710000"/>
<rect width="43.2587" height="55" transform="matrix(-1 0 0 1 1253.08 925)" fill="#710000"/>
<rect width="48.3055" height="31" transform="matrix(-1 0 0 1 1301.39 950)" fill="#710000"/>
<path d="M1357.98 994.5C1315.81 978.5 1276.85 941.938 1239.74 928.449C1202.63 914.96 1151.62 900.395 1075 903" stroke="#710000" stroke-width="30"/>
<rect x="638" y="980" width="228" height="30" fill="#710000"/>
<rect x="798.231" y="911" width="67.7683" height="69" fill="#710000"/>
<rect x="724.146" y="956" width="34.4584" height="24" fill="#710000"/>
<rect x="758.604" y="929" width="39.6272" height="51" fill="#710000"/>
<path d="M640.584 995C734.484 1001 758.03 903 866 903" stroke="#710000" stroke-width="30"/>
<rect x="866" y="888" width="150" height="20" fill="#710000"/>
<rect x="1016" y="888" width="63" height="122" fill="#710000"/>
<rect x="380" y="895" width="150" height="30" fill="#FF0000"/>
<rect y="980" width="320" height="30" fill="#710000"/>
<rect x="320" y="980" width="320" height="30" fill="#710000"/>
<rect x="2566" y="702" width="30" height="30" fill="#710000"/>
<rect x="3148" y="513" width="30" height="30" fill="#710000"/>
<rect x="3302" y="597" width="30" height="30" fill="#710000"/>
<rect x="5752" y="578" width="30" height="30" fill="#710000"/>
<rect x="2028" y="744" width="30" height="30" fill="#710000"/>
<path d="M6802 896C7063.19 896 6970.21 1019.38 6938.96 1051C6907.71 1082.62 6898.88 1206 7150 1206" stroke="#EBFF00" stroke-width="40"/>
<path d="M6135 586C6395.94 586 6303.05 709.375 6271.83 741C6240.61 772.625 6231.78 896 6482.66 896" stroke="#EBFF00" stroke-width="40"/>
<rect x="6577" y="896" width="1" height="1" fill="#FF00F5"/>
<rect x="6637" y="896" width="1" height="1" fill="#FF00F5"/>
<rect x="6667" y="896" width="1" height="1" fill="#FF00F5"/>
<rect x="6697" y="896" width="1" height="1" fill="#FF00F5"/>
<rect x="7426" y="1201" width="1" height="1" fill="#FF00F5"/>
<rect x="7396" y="1201" width="1" height="1" fill="#FF00F5"/>
<rect x="7456" y="1201" width="1" height="1" fill="#FF00F5"/>
<rect x="7486" y="1201" width="1" height="1" fill="#FF00F5"/>
<rect x="7516" y="1201" width="1" height="1" fill="#FF00F5"/>
<rect x="2590" y="652" width="1" height="1" fill="#FF00F5"/>
<rect x="3913" y="821" width="1" height="1" fill="#FF00F5"/>
<rect x="3943" y="821" width="1" height="1" fill="#FF00F5"/>
<rect x="3973" y="821" width="1" height="1" fill="#FF00F5"/>
<rect x="4493" y="602" width="1" height="1" fill="#FF00F5"/>
<rect x="4532" y="613" width="1" height="1" fill="#FF00F5"/>
<rect x="4568" y="627" width="1" height="1" fill="#FF00F5"/>
<rect x="4456" y="595" width="1" height="1" fill="#FF00F5"/>
<rect x="4606" y="637" width="1" height="1" fill="#FF00F5"/>
<rect x="5394" y="593" width="1" height="1" fill="#FF00F5"/>
<rect x="5310" y="528" width="1" height="1" fill="#FF00F5"/>
<rect x="5370" y="547" width="1" height="1" fill="#FF00F5"/>
<rect x="5230" y="593" width="1" height="1" fill="#FF00F5"/>
<rect x="5250" y="547" width="1" height="1" fill="#FF00F5"/>
<rect x="3043" y="523" width="1" height="1" fill="#FF00F5"/>
<rect x="3073" y="523" width="1" height="1" fill="#FF00F5"/>
<rect x="3103" y="523" width="1" height="1" fill="#FF00F5"/>
<rect x="3121" y="630" width="1" height="1" fill="#FF00F5"/>
<rect x="3151" y="630" width="1" height="1" fill="#FF00F5"/>
<rect x="3181" y="630" width="1" height="1" fill="#FF00F5"/>
<rect x="4153" y="821" width="1" height="1" fill="#FF00F5"/>
<rect x="4183" y="821" width="1" height="1" fill="#FF00F5"/>
<rect x="4213" y="821" width="1" height="1" fill="#FF00F5"/>
<rect x="6607" y="896" width="1" height="1" fill="#FF00F5"/>
<rect x="2936" y="867" width="1" height="1" fill="#0E770B"/>
<rect x="3938" y="867" width="1" height="1" fill="#05FF00"/>
<rect x="4178" y="867" width="1" height="1" fill="#05FF00"/>
<rect x="4518" y="717" width="1" height="1" fill="#0E770B"/>
<rect x="5898" y="586" width="1" height="1" fill="#05FF00"/>
<rect x="2560" y="652" width="1" height="1" fill="#FF00F5"/>
<rect x="228" y="885" width="1" height="1" fill="#FF00F5"/>
<rect x="258" y="885" width="1" height="1" fill="#FF00F5"/>
<rect x="288" y="885" width="1" height="1" fill="#FF00F5"/>
<rect x="871" y="808" width="1" height="1" fill="#FF00F5"/>
<rect x="901" y="808" width="1" height="1" fill="#FF00F5"/>
<rect x="931" y="808" width="1" height="1" fill="#FF00F5"/>
<rect x="961" y="808" width="1" height="1" fill="#FF00F5"/>
<rect x="991" y="808" width="1" height="1" fill="#FF00F5"/>
<rect x="1295" y="927" width="1" height="1" fill="#FF00F5"/>
<rect x="1501" y="934" width="1" height="1" fill="#FF00F5"/>
<rect x="1333" y="948" width="1" height="1" fill="#FF00F5"/>
<rect x="1375" y="963" width="1" height="1" fill="#FF00F5"/>
<rect x="1426" y="963" width="1" height="1" fill="#FF00F5"/>
<rect x="1468" y="955" width="1" height="1" fill="#FF00F5"/>
<rect x="2022" y="694" width="1" height="1" fill="#FF00F5"/>
<line x1="3636" y1="826.5" x2="3637" y2="826.5" stroke="#05FF00"/>
<line x1="1079" y1="802.5" x2="1080" y2="802.5" stroke="#0E770B"/>
<line x1="1733" y1="817.5" x2="1734" y2="817.5" stroke="#05FF00"/>
<line x1="1949" y1="753.5" x2="1950" y2="753.5" stroke="#05FF00"/>
<rect x="3290" y="597" width="12" height="18" fill="#710000"/>
<rect x="3332" y="597" width="12" height="18" fill="#710000"/>
<rect x="3178" y="501" width="12" height="30" fill="#710000"/>
<rect x="3290" y="585" width="54" height="12" fill="#710000"/>
<rect x="2052" y="694" width="1" height="1" fill="#FF00F5"/>
<rect x="380" y="883" width="150" height="12" fill="#FF0000"/>
<rect x="530" y="883" width="12" height="42" fill="#FF0000"/>
<rect x="368" y="883" width="12" height="42" fill="#FF0000"/>
<rect y="968" width="320" height="12" fill="#710000"/>
<rect x="320" y="968" width="320" height="12" fill="#710000"/>
<path d="M5484.36 679.611C5541.03 679.611 5582.88 634.831 5628.13 623.545C5673.37 612.259 5736.57 598.82 5830 600.999" stroke="#710000" stroke-width="12"/>
<rect x="4768" y="670" width="311" height="12" fill="#FF0000"/>
<rect x="5079" y="670" width="444" height="12" fill="#710000"/>
<rect x="5828" y="595" width="306" height="12" fill="#710000"/>
<rect x="5740" y="578" width="12" height="30" fill="#710000"/>
<rect x="5782" y="578" width="12" height="30" fill="#710000"/>
<rect x="5740" y="566" width="54" height="12" fill="#710000"/>
<rect x="4087" y="595" width="274" height="12" fill="#FF0000"/>
<rect x="4075" y="595" width="12" height="42" fill="#710000"/>
<rect x="4005" y="625" width="12" height="42" fill="#710000"/>
<rect x="4017" y="625" width="58" height="12" fill="#FF0000"/>
<rect x="3738" y="655" width="267" height="12" fill="#FF0000"/>
<rect x="5067" y="712" width="12" height="50" fill="#710000"/>
<rect x="4646" y="761" width="12" height="42" fill="#710000"/>
<rect x="4429" y="803" width="12" height="31" fill="#710000"/>
<rect x="4349" y="834" width="12" height="42" fill="#710000"/>
<rect x="4441" y="803" width="217" height="12" fill="#710000"/>
<rect x="2596" y="702" width="12" height="30" fill="#710000"/>
<rect x="2554" y="690" width="54" height="12" fill="#710000"/>
<rect x="1550" y="857" width="139" height="12" fill="#710000"/>
<rect x="1677" y="826" width="12" height="31" fill="#710000"/>
<rect x="1765" y="797" width="12" height="29" fill="#710000"/>
<rect x="1895" y="762" width="12" height="35" fill="#710000"/>
<rect x="1689" y="826" width="88" height="12" fill="#710000"/>
<rect x="1777" y="797" width="130" height="12" fill="#710000"/>
<rect x="1907" y="762" width="121" height="12" fill="#710000"/>
<rect x="2028" y="732" width="30" height="12" fill="black"/>
<rect x="2028" y="732" width="30" height="12" fill="#710000"/>
<rect x="2058" y="732" width="12" height="30" fill="#710000"/>
<rect x="2016" y="732" width="12" height="30" fill="#710000"/>
<rect x="2058" y="762" width="418" height="12" fill="#710000"/>
<rect x="2464" y="732" width="12" height="30" fill="#710000"/>
<rect x="2554" y="702" width="12" height="30" fill="#710000"/>
<rect x="2464" y="720" width="90" height="12" fill="#710000"/>
<rect x="2608" y="720" width="78" height="12" fill="#710000"/>
<rect x="2846" y="610" width="97" height="12" fill="#FF0000"/>
<rect x="3014" y="531" width="134" height="12" fill="#FF0000"/>
<rect x="3332" y="615" width="150" height="12" fill="#FF0000"/>
<rect x="3148" y="501" width="30" height="12" fill="#710000"/>
<rect x="3190" y="531" width="12" height="42" fill="#FF0000"/>
<rect x="3178" y="531" width="12" height="12" fill="#FF0000"/>
<rect x="3131" y="672" width="12" height="42" fill="#FF0000"/>
<rect x="3562" y="630" width="12" height="42" fill="#FF0000"/>
<rect x="3666" y="670" width="12" height="42" fill="#FF0000"/>
<rect x="3136" y="501" width="12" height="30" fill="#710000"/>
<rect x="2943" y="610" width="12" height="42" fill="#FF0000"/>
<rect x="3002" y="531" width="12" height="42" fill="#FF0000"/>
<rect x="2686" y="762" width="12" height="125" fill="#710000"/>
<rect x="2698" y="875" width="405" height="12" fill="#710000"/>
<rect x="3387" y="938" width="355" height="12" fill="#710000"/>
<rect x="3884" y="876" width="477" height="12" fill="#710000"/>
<rect x="4361" y="834" width="80" height="12" fill="#710000"/>
<rect x="4658" y="761" width="421" height="12" fill="#710000"/>
<path d="M639.584 974C733.483 980 757.03 882 865 882" stroke="#710000" stroke-width="12"/>
<rect x="865" y="876" width="214" height="12" fill="#710000"/>
<rect x="1361" y="968" width="74" height="12" fill="#710000"/>
<path d="M1364 974.5C1321.82 958.5 1279.85 920.938 1242.74 907.449C1205.63 893.96 1156 882 1078 882" stroke="#710000" stroke-width="12"/>
<path d="M1433 973.958C1535.5 976.455 1556 867 1556 867" stroke="#710000" stroke-width="12"/>
<path d="M3739.23 944C3755.28 944 3783.3 920.929 3803.84 907.548C3824.37 894.167 3852.6 879.718 3895 882.302" stroke="#710000" stroke-width="12"/>
<path d="M3143 678C3185.06 678 3198.94 661.489 3223.96 648C3248.98 634.511 3253.93 621 3306.5 621" stroke="#FF0000" stroke-width="12"/>
<path d="M3562 636C3541.42 636 3534.63 631.655 3522.39 628.105C3510.14 624.556 3507.72 621 3482 621" stroke="#FF0000" stroke-width="12"/>
<path d="M4794 676C4682.62 676 4645.85 654.275 4579.59 636.526C4513.33 618.778 4500.23 601 4361 601" stroke="#FF0000" stroke-width="12"/>
<path d="M3678 676C3693.43 676 3698.53 671.655 3707.71 668.105C3716.89 664.556 3718.71 661 3738 661" stroke="#FF0000" stroke-width="12"/>
<path d="M2686 726C2794.5 726 2814 616.798 2847 616" stroke="#FF0000" stroke-width="12"/>
<path d="M3391.18 943.5C3361.49 943.5 3309.64 920.243 3271.65 906.754C3233.66 893.265 3177.44 878.395 3099 881" stroke="#710000" stroke-width="12"/>
</g>
<rect x="5" y="5" width="8040" height="1245" stroke="#710000" stroke-width="10"/>
<defs>
<clipPath id="clip0_0_3">
<rect width="8050" height="1255" fill="white"/>
</clipPath>
</defs>
</svg>
